<?xml version="1.0" standalone="no"?>
<!DOCTYPE svg PUBLIC "-//W3C//DTD SVG 20010904//EN"
 "http://www.w3.org/TR/2001/REC-SVG-20010904/DTD/svg10.dtd">
<svg version="1.0" xmlns="http://www.w3.org/2000/svg"
 width="499.000000pt" height="499.000000pt" viewBox="0 0 499.000000 499.000000"
 preserveAspectRatio="xMidYMid meet">

<g transform="translate(0.000000,499.000000) scale(0.100000,-0.100000)"
fill="#000000" stroke="none">
<path d="M2245 4863 c-235 -28 -505 -102 -685 -186 -30 -14 -89 -41 -131 -60
-162 -74 -412 -253 -587 -421 -358 -344 -603 -795 -697 -1283 -37 -190 -41
-525 -9 -751 45 -327 178 -666 372 -952 187 -276 413 -498 692 -682 151 -98
221 -136 360 -193 349 -144 601 -196 946 -196 332 0 595 52 904 178 114 46
227 100 270 128 19 12 80 51 135 86 344 218 674 586 845 944 200 419 266 788
226 1253 -28 321 -104 568 -274 897 -22 43 -124 198 -208 315 -119 167 -375
400 -599 545 -49 32 -106 69 -125 81 -65 42 -314 151 -440 192 -262 86 -444
113 -748 111 -119 -1 -230 -4 -247 -6z m1173 -403 c25 -7 25 -8 7 -15 -144
-56 -197 -95 -239 -178 l-28 -56 -81 -3 c-46 -2 -82 -7 -82 -13 0 -5 26 -23
57 -40 32 -16 58 -33 58 -36 0 -4 -18 -33 -39 -65 -51 -76 -138 -164 -161
-164 -11 0 -20 -8 -22 -21 -6 -45 -52 -63 -221 -84 -42 -6 -47 -9 -36 -21 7
-9 32 -25 55 -37 26 -13 40 -26 36 -33 -4 -6 -32 -29 -62 -51 -71 -52 -123
-110 -155 -172 -29 -59 -78 -222 -73 -247 2 -9 25 31 53 87 46 96 58 113 164
217 62 62 137 131 165 152 28 21 83 70 121 110 39 40 106 103 150 140 44 38
100 87 125 109 184 165 512 202 755 85 65 -32 188 -115 180 -122 -1 -2 -31 5
-66 14 -90 25 -267 25 -331 1 -72 -28 -118 -87 -151 -194 -30 -97 -108 -234
-169 -295 -75 -75 -142 -93 -285 -75 -35 4 -63 4 -63 0 0 -4 21 -23 45 -42 25
-18 45 -36 45 -40 0 -11 -205 -138 -244 -151 -22 -7 -55 -10 -79 -6 l-41 7 25
-25 c24 -24 26 -24 94 -11 217 41 398 58 554 52 299 -11 473 -71 619 -213 59
-56 70 -72 49 -64 -15 5 -67 14 -115 20 -140 16 -251 -11 -353 -86 -58 -42
-75 -40 -150 22 -30 24 -57 44 -61 44 -3 0 -3 -15 2 -32 4 -18 11 -52 14 -75
l6 -42 -62 -30 c-67 -32 -217 -71 -271 -71 -18 1 -46 9 -64 18 -35 19 -118
111 -128 142 -10 33 -25 23 -26 -17 0 -21 -5 -54 -12 -73 -22 -65 -110 -86
-227 -55 -111 30 -233 10 -290 -46 -17 -17 -32 -30 -34 -28 -1 2 -7 20 -12 39
-9 32 -13 35 -49 38 -22 2 -56 -1 -76 -7 -31 -9 -44 -8 -80 9 -77 35 -82 31
-74 -53 6 -61 4 -76 -9 -90 -18 -18 -92 -77 -117 -92 -8 -5 -37 -25 -64 -42
-57 -39 -73 -40 -109 -12 -15 12 -29 19 -31 17 -2 -2 -12 -44 -22 -93 l-18
-89 -50 -25 c-55 -28 -154 -124 -220 -213 -23 -32 -45 -55 -48 -51 -4 3 -7 48
-7 100 0 155 37 243 223 523 61 92 165 198 232 237 144 85 307 91 428 17 32
-20 60 -34 63 -31 8 7 -87 87 -130 109 -62 32 -208 58 -327 58 -99 0 -200 18
-223 40 -5 5 -4 28 4 55 7 25 10 48 7 51 -3 3 -38 -11 -77 -31 -44 -22 -94
-39 -125 -42 -48 -5 -58 -2 -119 35 -37 22 -90 46 -119 54 -68 17 -310 18
-356 0 -19 -6 -36 -10 -38 -8 -2 2 38 31 89 65 176 116 382 154 632 115 207
-32 433 -107 579 -193 88 -53 183 -147 226 -226 l22 -40 -6 39 c-9 53 -45 127
-97 193 -53 70 -86 94 -173 128 -38 15 -74 31 -79 35 -5 5 5 29 23 56 50 75
42 80 -50 33 -83 -44 -129 -38 -280 34 -62 30 -131 62 -152 71 -21 9 -40 22
-43 30 -3 8 10 47 30 87 20 40 35 73 33 75 -1 1 -40 -14 -87 -32 -52 -21 -94
-32 -109 -28 -13 3 -58 37 -100 76 -45 41 -103 83 -141 101 -61 30 -72 32
-175 32 -60 0 -128 -4 -150 -8 l-40 -8 25 21 c90 73 174 114 335 163 58 17 96
21 225 21 135 0 168 -3 255 -26 217 -56 292 -84 374 -141 63 -43 177 -160 215
-221 50 -80 114 -226 138 -318 28 -105 34 -79 14 60 -51 349 27 570 293 830
165 161 257 222 411 271 91 29 267 34 348 11z m280 -762 c74 -151 131 -342
132 -439 l0 -36 -52 14 c-120 31 -261 45 -424 41 l-162 -3 34 38 c19 20 34 42
34 47 0 6 8 10 18 10 35 0 160 80 206 131 55 61 110 157 138 239 12 33 22 60
23 60 2 0 25 -46 53 -102z m-2347 -187 c20 -6 53 -11 73 -11 34 0 36 -2 36
-34 0 -27 7 -41 34 -63 l35 -28 -92 3 c-92 4 -220 -10 -290 -30 -20 -6 -40 -9
-43 -5 -8 8 30 149 66 245 l32 82 56 -74 c43 -57 66 -77 93 -85z m-144 -437
c73 -37 94 -44 125 -40 32 5 36 4 31 -13 -7 -27 24 -68 60 -80 18 -6 73 -10
122 -10 65 0 99 -4 123 -16 33 -17 34 -17 149 12 13 3 35 2 50 -2 26 -6 25 -7
-28 -37 -92 -53 -270 -242 -296 -315 -3 -10 -16 -32 -28 -48 -12 -17 -45 -69
-72 -116 l-49 -86 -33 44 c-76 98 -164 265 -204 386 -46 137 -78 367 -51 367
7 0 53 -21 101 -46z m2598 -255 c-54 -215 -156 -402 -313 -574 -104 -113 -212
-196 -341 -263 -138 -71 -194 -86 -301 -80 -101 6 -157 31 -231 103 -60 58
-95 132 -141 300 -22 77 -44 156 -50 175 -6 19 -13 58 -15 85 -4 44 -1 54 21
78 14 15 34 27 45 27 18 0 19 -6 18 -82 -3 -124 14 -308 31 -348 l15 -35 19
85 c10 48 21 147 25 227 l6 142 30 10 c37 13 67 14 67 2 0 -22 68 -51 120 -51
106 0 162 34 176 106 l6 33 26 -32 c40 -48 46 -54 87 -81 44 -30 109 -34 192
-12 106 28 243 109 243 143 0 14 2 14 20 -2 20 -18 22 -18 63 2 23 11 76 46
117 77 85 64 89 61 65 -35z m-1543 -182 c22 -29 66 -166 79 -246 26 -167 -43
-326 -173 -393 -59 -31 -70 -33 -163 -33 -87 0 -109 4 -170 29 -72 29 -235
131 -235 146 0 4 7 10 15 13 8 4 46 30 85 59 50 37 73 61 77 81 6 28 17 35 28
17 13 -21 37 -7 137 83 56 51 120 103 141 116 48 29 57 47 57 112 l0 52 53 -7
c36 -5 57 -14 69 -29z m-871 -1154 c32 -19 35 -29 30 -90 l-3 -44 -42 3 c-42
3 -41 2 -45 61 -1 10 -9 17 -20 17 -22 0 -29 -23 -21 -65 4 -22 19 -39 60 -66
64 -42 79 -72 80 -157 0 -59 -2 -66 -31 -93 -27 -25 -39 -29 -88 -29 -38 0
-66 6 -88 20 -31 19 -33 23 -33 80 l0 60 44 0 45 0 3 -42 c2 -36 7 -44 26 -46
20 -3 22 0 22 49 0 47 -3 54 -37 83 -101 86 -103 89 -103 158 0 74 16 103 63
117 40 13 102 5 138 -16z m867 -5 c18 -18 22 -32 22 -85 l0 -63 -45 0 -45 0 0
50 c0 47 -2 50 -25 50 -33 0 -36 -17 -33 -190 l3 -145 25 0 c23 0 25 4 28 53
l3 52 50 0 49 0 -6 -57 c-9 -71 -26 -99 -70 -115 -40 -14 -42 -20 -11 -33 31
-14 35 -60 7 -75 -25 -14 -82 -9 -87 6 -2 7 10 17 27 23 33 11 33 31 -1 31
-10 0 -19 5 -19 10 0 6 5 10 10 10 23 0 8 18 -19 23 -16 3 -41 17 -55 30 l-26
24 0 185 c0 178 1 185 23 206 12 11 33 26 47 31 37 16 121 4 148 -21z m260 16
c62 -24 67 -43 66 -243 l-1 -175 -34 -29 c-31 -26 -39 -28 -97 -25 -52 3 -67
9 -90 31 -27 27 -27 29 -30 181 -2 89 1 171 7 194 20 71 97 100 179 66z m1123
6 c46 -13 69 -47 69 -100 l0 -40 -45 0 c-44 0 -45 0 -45 34 0 35 -17 50 -45
40 -11 -5 -15 -23 -15 -71 0 -62 1 -64 23 -56 35 12 87 6 108 -13 16 -15 19
-32 19 -120 0 -102 0 -102 -31 -128 -25 -22 -41 -26 -91 -26 -55 0 -63 3 -95
35 l-35 35 4 179 c3 160 5 181 22 200 33 36 95 48 157 31z m302 -1 c68 -19 77
-47 77 -243 l0 -168 -34 -34 c-30 -30 -40 -34 -89 -34 -63 0 -117 30 -128 70
-10 37 -10 289 1 335 16 70 83 99 173 74z m-2793 -39 l0 -40 -45 0 -45 0 0
-55 0 -55 36 0 c35 0 35 -1 32 -37 -3 -35 -6 -38 -35 -41 l-33 -3 0 -65 0 -64
44 0 c42 0 44 -2 49 -32 2 -18 3 -35 1 -37 -6 -6 -197 -1 -203 5 -3 3 0 31 7
62 15 71 16 318 2 327 -5 3 -10 22 -10 41 l0 34 100 0 100 0 0 -40z m546 6
c21 -24 24 -37 24 -112 0 -47 -4 -94 -10 -104 -11 -21 -60 -40 -101 -40 l-29
0 0 -89 c0 -50 -3 -92 -7 -94 -5 -2 -30 -2 -57 1 l-48 4 6 37 c3 20 6 126 7
235 l1 198 95 -4 c89 -4 97 -6 119 -32z m234 28 c0 -8 69 -417 75 -441 5 -22
2 -23 -50 -23 -59 0 -56 -3 -59 65 -1 26 -5 30 -33 33 l-33 3 0 -50 0 -51 -51
0 c-50 0 -51 0 -46 28 15 83 46 297 52 357 4 39 9 73 12 78 5 8 133 10 133 1z
m1020 -7 c51 -25 60 -66 58 -244 -3 -159 -4 -163 -28 -188 -27 -26 -58 -31
-177 -27 -62 2 -63 2 -63 30 0 16 3 31 6 35 8 7 8 326 0 334 -3 4 -6 21 -6 40
l0 33 93 0 c53 0 102 -6 117 -13z m328 -197 c18 -113 36 -220 39 -237 5 -30 3
-33 -20 -33 -13 0 -39 3 -56 6 -30 6 -31 9 -31 55 0 48 -1 49 -30 49 -32 0
-35 -6 -31 -67 l3 -33 -58 0 -57 0 7 38 c4 20 20 120 36 222 17 102 32 191 35
198 3 9 23 12 67 10 l63 -3 33 -205z"/>
<path d="M2435 1418 c-3 -8 -4 -83 -3 -168 l3 -155 25 0 25 0 0 165 c0 164 0
165 -23 168 -12 2 -24 -3 -27 -10z"/>
<path d="M3572 1248 c-7 -7 -12 -40 -12 -84 0 -57 3 -73 16 -78 33 -13 45 13
42 93 -2 58 -7 76 -18 79 -9 1 -21 -3 -28 -10z"/>
<path d="M3867 1423 c-4 -3 -7 -77 -7 -164 0 -141 2 -159 18 -167 39 -20 42
-7 42 169 l0 169 -23 0 c-13 0 -27 -3 -30 -7z"/>
<path d="M1593 1423 c-9 -3 -13 -28 -13 -75 0 -66 1 -69 23 -66 20 3 22 9 25
64 3 62 -9 86 -35 77z"/>
<path d="M1858 1370 c-4 -14 -10 -58 -14 -97 l-7 -73 27 0 c25 0 26 2 21 38
-3 20 -9 64 -13 97 -6 46 -9 54 -14 35z"/>
<path d="M2857 1423 c-4 -3 -7 -47 -7 -96 0 -80 2 -89 20 -94 11 -3 20 -9 20
-13 0 -4 -9 -10 -20 -13 -17 -4 -20 -14 -20 -56 0 -55 17 -74 45 -51 12 10 15
41 15 155 0 79 -3 150 -6 159 -6 16 -35 22 -47 9z"/>
<path d="M3179 1375 c-4 -5 -10 -39 -14 -75 -3 -36 -9 -73 -11 -82 -4 -14 1
-18 20 -18 24 0 26 4 25 38 -2 66 -14 147 -20 137z"/>
</g>
</svg>
